<?xml version="1.0" standalone="no"?>
<!DOCTYPE svg PUBLIC "-//W3C//DTD SVG 20010904//EN"
 "http://www.w3.org/TR/2001/REC-SVG-20010904/DTD/svg10.dtd">
<svg version="1.0" xmlns="http://www.w3.org/2000/svg"
 width="366.000000pt" height="366.000000pt" viewBox="0 0 366.000000 366.000000"
 preserveAspectRatio="xMidYMid meet">
<metadata>
Created by potrace 1.11, written by Peter Selinger 2001-2013
</metadata>
<g transform="translate(0.000000,366.000000) scale(0.100000,-0.100000)"
fill="#000000" stroke="none">
<path d="M1680 3609 c-303 -25 -638 -148 -890 -327 -122 -86 -326 -290 -412
-412 -285 -401 -395 -916 -297 -1393 47 -235 159 -494 297 -687 86 -122 290
-326 412 -412 193 -138 452 -250 687 -297 477 -98 992 12 1393 297 122 86 326
290 412 412 138 193 250 452 297 687 98 477 -12 992 -297 1393 -86 122 -290
326 -412 412 -259 184 -582 301 -907 328 -130 11 -146 11 -283 -1z m484 -99
c151 -32 279 -76 411 -140 489 -237 817 -662 937 -1211 19 -91 22 -133 22
-329 0 -196 -3 -238 -22 -329 -34 -157 -78 -283 -142 -416 -237 -488 -662
-817 -1211 -937 -91 -19 -133 -22 -329 -22 -196 0 -238 3 -329 22 -157 34
-283 78 -416 142 -488 237 -817 662 -937 1211 -19 91 -22 133 -22 329 0 196 3
238 22 329 68 313 199 577 400 806 257 294 625 494 1031 560 131 22 456 13
585 -15z"/>
<path d="M1826 3288 c-17 -218 -18 -300 -4 -296 15 5 15 5 17 98 l1 70 60 0
c33 0 60 4 60 10 0 6 -17 10 -37 10 -76 0 -78 3 -75 80 l4 70 59 0 c73 0 77
15 7 24 -91 10 -86 14 -92 -66z"/>
<path d="M1650 3343 c1 -4 9 -66 19 -138 10 -71 17 -131 16 -133 -1 -2 -35 56
-75 128 -41 71 -79 130 -87 130 -9 0 -12 -8 -8 -22 2 -13 11 -77 20 -143 24
-186 26 -195 41 -195 9 0 12 8 9 28 -10 52 -34 237 -31 239 1 1 35 -56 76
-127 41 -72 78 -130 83 -130 18 0 -32 361 -50 368 -7 2 -13 0 -13 -5z"/>
<path d="M1750 3307 c0 -24 3 -105 7 -180 5 -110 9 -137 21 -137 11 0 13 9 8
43 -3 23 -6 94 -7 157 0 63 -3 125 -6 138 -9 37 -23 25 -23 -21z"/>
<path d="M2058 3313 c-24 -29 -27 -36 -48 -144 -25 -129 -25 -140 1 -173 28
-36 89 -37 117 -2 27 35 67 252 53 288 -18 47 -93 66 -123 31z m80 -19 c27
-19 28 -43 2 -170 -22 -111 -42 -141 -84 -130 -41 10 -46 39 -25 151 24 122
26 131 45 150 19 19 34 19 62 -1z"/>
<path d="M1406 3301 c-4 -6 -4 -79 0 -163 4 -101 3 -150 -3 -143 -6 6 -47 65
-92 133 -77 115 -111 147 -91 84 5 -15 30 -94 55 -176 32 -101 50 -145 57
-138 9 9 -9 79 -58 229 -3 10 27 -31 68 -92 40 -60 78 -109 83 -107 6 1 9 54
8 130 l-2 127 34 -105 c47 -142 44 -135 56 -123 6 6 -8 65 -42 174 -52 167
-62 189 -73 170z"/>
<path d="M2305 3270 c-32 -12 -40 -27 -79 -138 -43 -123 -46 -174 -14 -196 27
-19 78 -21 102 -3 21 15 95 220 96 263 0 16 -6 38 -12 47 -17 22 -67 36 -93
27z m65 -40 c11 -11 20 -24 20 -28 0 -13 -67 -207 -79 -230 -6 -11 -20 -24
-31 -27 -26 -8 -70 19 -70 43 0 30 69 224 86 244 22 24 49 23 74 -2z"/>
<path d="M2430 3054 c-45 -85 -79 -161 -77 -169 3 -7 26 -20 50 -30 71 -27 90
-12 159 120 58 112 68 149 46 177 -13 16 -77 58 -90 58 -3 0 -43 -70 -88 -156z
m157 61 c3 -33 -91 -222 -118 -238 -9 -6 -27 -7 -40 -4 -56 15 -56 17 22 165
l74 141 30 -17 c21 -13 31 -27 32 -47z"/>
<path d="M1053 3160 c-51 -31 -46 -74 23 -205 31 -58 64 -110 74 -115 50 -27
120 11 120 65 0 27 -86 206 -116 242 -28 32 -63 37 -101 13z m80 -27 c8 -10
38 -65 66 -122 40 -81 48 -107 41 -122 -16 -28 -46 -42 -69 -30 -20 11 -115
179 -127 225 -13 52 53 88 89 49z"/>
<path d="M2289 2528 c-269 -329 -282 -353 -244 -444 l15 -36 -112 -164 c-61
-90 -116 -163 -122 -161 -5 2 -59 75 -118 163 l-109 159 16 37 c32 77 8 209
-56 310 -82 128 -276 263 -369 256 -61 -4 -84 -37 -83 -120 3 -255 203 -517
395 -518 l53 -1 114 -160 c62 -88 115 -168 118 -177 6 -27 -208 -305 -305
-397 -208 -195 -222 -210 -222 -241 0 -41 18 -101 36 -119 18 -18 63 -19 117
-4 46 12 64 39 113 169 54 143 105 241 208 400 l94 144 92 -139 c100 -154 159
-268 216 -420 45 -121 71 -150 141 -160 70 -9 89 3 109 72 15 51 15 59 1 88
-8 18 -51 63 -94 101 -160 141 -264 260 -411 471 l-22 31 120 169 120 168 62
6 c59 6 65 9 108 56 42 46 310 481 310 503 0 6 -3 10 -7 10 -5 0 -78 -99 -163
-220 -137 -193 -180 -244 -180 -211 0 5 70 112 156 236 85 125 154 231 152
237 -3 7 -78 -91 -169 -217 -152 -212 -200 -268 -187 -219 3 11 73 119 157
241 83 122 151 224 151 228 0 22 -36 -23 -177 -219 -147 -204 -194 -259 -181
-210 3 11 71 114 152 231 80 116 146 214 146 217 0 20 -30 -11 -141 -146z"/>
<path d="M660 1074 c-52 -36 -101 -69 -109 -73 -7 -5 -12 -13 -10 -20 3 -7 24
3 56 24 l52 35 30 -30 c35 -35 45 -36 88 -10 43 26 51 60 23 105 -12 19 -25
35 -28 34 -4 0 -50 -29 -102 -65z m115 12 c19 -29 11 -52 -25 -71 -23 -12 -30
-12 -49 1 -30 22 -26 40 16 69 21 14 39 25 40 25 1 0 9 -11 18 -24z"/>
<path d="M2886 1132 c-4 -6 7 -38 23 -70 l30 -59 -70 5 c-42 3 -69 1 -69 -5 0
-6 34 -13 76 -16 66 -5 82 -10 129 -42 29 -21 59 -35 67 -33 7 3 -12 21 -45
43 -50 33 -64 50 -96 114 -22 42 -41 69 -45 63z"/>
<path d="M734 950 c-55 -45 -100 -86 -102 -91 -7 -19 16 -8 58 28 l43 37 18
-23 c23 -28 16 -48 -29 -88 -20 -17 -33 -35 -30 -39 11 -11 88 56 88 77 0 11
7 19 16 19 27 0 73 33 84 61 13 30 5 52 -28 82 -19 17 -22 16 -118 -63z m120
28 c21 -30 20 -35 -10 -63 -33 -31 -47 -31 -74 -2 l-21 22 38 32 c45 39 47 39
67 11z"/>
<path d="M1560 935 l0 -75 33 1 c23 1 26 3 10 6 -18 3 -23 11 -23 33 0 22 5
30 23 33 l22 4 -22 2 c-18 1 -23 7 -23 30 0 23 5 31 23 34 16 3 13 5 -10 6
l-33 1 0 -75z"/>
<path d="M1637 1003 c-4 -3 -7 -19 -7 -35 0 -21 7 -32 25 -40 17 -8 25 -18 23
-32 -4 -29 -26 -31 -38 -4 l-10 23 3 -25 c3 -32 41 -40 56 -11 14 25 6 45 -25
66 -28 18 -31 40 -8 49 11 4 18 -1 21 -14 3 -11 9 -17 14 -14 14 8 -10 44 -30
44 -10 0 -21 -3 -24 -7z"/>
<path d="M1713 1003 c14 -4 17 -16 17 -74 0 -39 4 -69 10 -69 6 0 10 30 10 69
0 58 3 70 18 74 9 3 -3 5 -28 5 -25 0 -37 -2 -27 -5z"/>
<path d="M1857 1003 c-4 -3 -7 -16 -6 -27 0 -20 1 -20 10 2 5 13 13 20 19 17
16 -10 12 -40 -10 -68 -11 -14 -20 -35 -20 -46 0 -17 6 -21 33 -20 30 2 30 2
5 6 -34 5 -35 10 -3 53 14 19 25 41 25 50 0 29 -36 51 -53 33z"/>
<path d="M1927 1003 c-4 -3 -7 -35 -7 -70 0 -48 4 -65 15 -69 26 -10 45 16 45
61 0 29 5 45 15 49 12 4 15 -6 16 -57 1 -34 4 -52 6 -39 6 30 53 32 53 2 0
-11 5 -20 10 -20 6 0 10 32 10 75 0 41 -3 75 -8 75 -4 0 -18 -21 -32 -47 l-25
-48 -3 48 c-3 48 -14 59 -30 31 -8 -14 -10 -14 -21 0 -14 17 -33 21 -44 9z
m31 -72 c-2 -28 -7 -52 -13 -54 -11 -2 -19 87 -10 111 11 31 26 -5 23 -57z
m108 -8 c-11 -11 -17 4 -9 23 7 18 8 18 11 1 2 -10 1 -21 -2 -24z"/>
<path d="M2745 943 c-14 -15 -25 -31 -25 -34 0 -4 35 -37 78 -75 42 -37 87
-77 99 -88 13 -10 26 -16 30 -12 4 4 -14 25 -40 48 -39 33 -46 43 -36 55 29
34 46 34 93 -2 25 -19 48 -31 50 -26 7 11 -70 72 -94 74 -11 1 -20 7 -20 15 0
23 -57 72 -84 72 -15 0 -36 -11 -51 -27z m92 -15 c28 -27 29 -49 3 -73 -20
-18 -21 -18 -58 16 -20 19 -39 35 -41 36 -2 2 4 12 14 23 24 26 53 25 82 -2z"/>
<path d="M822 827 l-92 -93 35 -34 c19 -18 37 -31 40 -29 3 3 -6 16 -20 29
-33 31 -32 40 10 80 l35 34 30 -29 c16 -16 32 -26 35 -23 3 2 -6 15 -20 28
-33 31 -32 40 10 80 l35 34 30 -29 c16 -16 33 -25 37 -21 7 7 -53 65 -67 66
-3 0 -47 -42 -98 -93z"/>
<path d="M2652 849 l-44 -41 42 -95 c22 -53 39 -97 37 -99 -2 -2 -39 26 -83
61 -76 63 -99 76 -92 55 5 -16 210 -180 219 -175 4 3 -17 62 -47 132 -30 69
-54 129 -54 132 0 3 43 -39 94 -94 l94 -100 36 34 c43 41 40 53 -5 18 l-31
-24 -36 39 -35 39 28 29 c37 39 24 52 -15 15 l-30 -29 -37 37 -37 37 27 28
c27 28 34 42 20 42 -5 0 -27 -19 -51 -41z"/>
<path d="M949 784 c-110 -140 -119 -153 -110 -158 5 -4 31 22 57 56 26 35 51
68 56 73 9 9 -10 -43 -47 -131 -25 -61 -14 -60 85 13 l65 47 -29 -39 c-16 -22
-40 -53 -53 -68 -24 -29 -30 -51 -14 -45 17 6 171 210 165 219 -5 8 -60 -29
-156 -104 -21 -16 -38 -26 -38 -23 0 3 18 51 40 107 23 56 39 106 37 112 -2 6
-28 -21 -58 -59z"/>
<path d="M1084 633 c-92 -142 -87 -133 -72 -133 7 0 40 42 72 93 33 50 66 102
73 114 8 12 10 24 5 27 -6 3 -41 -42 -78 -101z"/>
<path d="M2480 720 c0 -11 115 -196 136 -219 8 -8 16 -12 19 -9 7 7 -136 238
-147 238 -5 0 -8 -4 -8 -10z"/>
<path d="M1144 653 c-20 -38 -45 -82 -56 -99 -23 -40 -23 -76 0 -97 29 -26 58
-21 85 16 36 48 109 188 103 195 -10 9 -20 -6 -71 -98 -25 -47 -52 -91 -60
-99 -16 -16 -43 -8 -52 15 -5 15 33 97 89 191 11 18 15 34 9 37 -5 4 -26 -24
-47 -61z"/>
<path d="M2377 663 c-4 -7 109 -222 124 -238 8 -7 99 36 99 47 0 12 -22 9 -50
-7 -14 -8 -28 -14 -32 -15 -3 0 -34 50 -68 110 -33 61 -63 110 -65 110 -2 0
-6 -3 -8 -7z"/>
<path d="M1251 548 c-65 -167 -62 -158 -48 -158 7 0 26 36 42 80 16 44 30 78
32 76 2 -2 0 -42 -5 -90 -4 -48 -5 -89 0 -92 4 -3 31 27 60 65 28 39 53 69 55
67 2 -1 -10 -36 -27 -76 -28 -68 -32 -96 -10 -74 8 8 100 237 100 249 0 19
-26 -6 -76 -72 -91 -120 -85 -117 -79 -43 3 36 8 89 11 118 4 32 2 52 -4 52
-6 0 -29 -46 -51 -102z"/>
<path d="M2308 633 c-21 -8 -38 -19 -38 -23 0 -7 99 -240 105 -248 5 -6 95 38
95 48 0 13 -10 12 -40 -5 -14 -8 -29 -14 -35 -15 -10 0 -51 88 -44 94 2 2 19
11 37 20 18 9 30 21 27 26 -4 6 -18 4 -35 -5 -41 -21 -46 -20 -64 25 -22 55
-21 57 19 71 19 7 35 17 35 21 0 12 -20 9 -62 -9z"/>
<path d="M2157 583 c-10 -3 -17 -10 -14 -16 2 -7 21 -67 42 -134 37 -120 39
-122 64 -116 43 10 60 22 67 47 7 28 -41 189 -62 211 -15 14 -58 18 -97 8z
m87 -35 c21 -34 57 -164 50 -182 -7 -18 -43 -31 -54 -19 -14 15 -72 202 -65
213 11 18 54 11 69 -12z"/>
<path d="M1517 433 c-15 -75 -24 -139 -22 -142 10 -9 18 9 30 66 6 32 16 57
21 57 5 -1 24 -4 42 -8 24 -4 32 -2 30 7 -3 6 -20 14 -39 17 -31 5 -34 8 -32
35 5 71 10 77 53 70 49 -8 55 10 8 20 -18 4 -40 9 -49 11 -14 4 -21 -18 -42
-133z"/>
<path d="M1952 543 c-19 -4 -22 -9 -17 -36 6 -37 35 -235 35 -241 0 -4 7 -3
63 9 43 9 50 41 33 148 -19 117 -36 135 -114 120z m61 -25 c18 -14 37 -96 37
-163 0 -45 -17 -69 -46 -63 -15 2 -21 24 -34 115 -16 117 -17 114 21 122 3 0
13 -5 22 -11z"/>
<path d="M1666 518 c-18 -30 -31 -200 -17 -226 15 -27 58 -36 86 -18 25 17 34
58 36 170 1 57 -2 72 -17 83 -28 21 -72 16 -88 -9z m72 -10 c25 -25 9 -201
-20 -219 -18 -12 -24 -11 -43 7 -13 13 -14 31 -9 102 3 48 11 95 16 105 10 20
39 22 56 5z"/>
<path d="M1822 524 c-20 -14 -22 -23 -22 -123 0 -118 10 -141 62 -141 46 0 58
27 58 134 0 90 -2 99 -25 121 -28 29 -42 31 -73 9z m73 -47 c3 -12 5 -58 3
-101 -2 -62 -7 -81 -20 -90 -13 -8 -23 -8 -35 0 -26 16 -32 203 -7 221 22 16
52 1 59 -30z"/>
</g>
</svg>
